<?xml version="1.0" encoding="UTF-8"?>
<!DOCTYPE svg PUBLIC "-//W3C//DTD SVG 1.1//EN" "http://www.w3.org/Graphics/SVG/1.1/DTD/svg11.dtd">
<!-- Creator: CorelDRAW 2021 (64-Bit) -->
<svg xmlns="http://www.w3.org/2000/svg" xml:space="preserve" width="58.1783mm" height="20.0282mm" version="1.1" style="shape-rendering:geometricPrecision; text-rendering:geometricPrecision; image-rendering:optimizeQuality; fill-rule:evenodd; clip-rule:evenodd"
viewBox="0 0 1037.46 357.15"
 xmlns:xlink="http://www.w3.org/1999/xlink"
 xmlns:xodm="http://www.corel.com/coreldraw/odm/2003">
 <defs>
  <style type="text/css">
   <![CDATA[
    .fil1 {fill:#FEFEFE}
    .fil0 {fill:#FEFEFE;fill-rule:nonzero}
   ]]>
  </style>
 </defs>
 <g id="Camada_x0020_1">
  <metadata id="CorelCorpID_0Corel-Layer"/>
  <g id="_2751767961792">
   <path class="fil0" d="M184.52 108.56c11.43,0 21.56,2.28 30.4,6.83 8.84,4.55 15.8,11.52 20.89,20.89 5.09,9.37 7.63,21.38 7.63,36.02l0 82.49 -41.78 0 0 -76.06c0,-11.61 -2.41,-20.17 -7.23,-25.71 -4.82,-5.54 -11.61,-8.3 -20.35,-8.3 -6.07,0 -11.51,1.38 -16.34,4.15 -4.82,2.77 -8.57,6.92 -11.25,12.45 -2.68,5.54 -4.02,12.59 -4.02,21.16l0 72.31 -41.78 0 0 -76.06c0,-11.61 -2.37,-20.17 -7.1,-25.71 -4.73,-5.54 -11.47,-8.3 -20.22,-8.3 -6.07,0 -11.52,1.38 -16.34,4.15 -4.82,2.77 -8.57,6.92 -11.25,12.45 -2.68,5.54 -4.02,12.59 -4.02,21.16l0 72.31 -41.78 0 0 -144.08 39.9 0 0 39.37 -7.5 -11.52c5,-9.82 12.1,-17.27 21.29,-22.36 9.19,-5.09 19.68,-7.63 31.47,-7.63 13.21,0 24.77,3.35 34.68,10.04 9.91,6.7 16.47,16.92 19.68,30.66l-14.73 -4.02c4.82,-11.25 12.54,-20.18 23.17,-26.78 10.62,-6.61 22.81,-9.91 36.56,-9.91z"/>
   <path class="fil0" d="M319.16 108.55c-23.03,0 -46.33,6.16 -62.13,17.41l15 29.19c10.44,-8.3 26.25,-13.39 41.51,-13.39 22.5,0 33.21,10.44 33.21,28.39l-33.21 0c-43.92,0 -61.87,17.68 -61.87,43.12 0,24.91 20.09,43.65 53.83,43.65 21.16,0 36.16,-6.96 43.92,-20.08l0 17.94 39.1 0 0 -82.22c0,-43.65 -25.44,-64.01 -69.36,-64.01zm-3.21 120.25c-14.73,0 -23.57,-6.96 -23.57,-17.41 0,-9.64 6.16,-16.87 25.71,-16.87l28.66 0 0 14.73c-4.82,13.12 -16.87,19.55 -30.8,19.55z"/>
   <path class="fil0" d="M446.28 129.71l0 -19.01 -39.91 0 0 144.09 41.78 0 0 -68.03c0,-27.59 15.27,-40.17 38.3,-40.17 3.21,0 5.89,0.27 9.37,0.53l0 -38.57c-22.23,0 -39.37,7.23 -49.55,21.16z"/>
   <path class="fil0" d="M567.63 108.55c-23.03,0 -46.33,6.16 -62.13,17.41l15 29.19c10.44,-8.3 26.25,-13.39 41.51,-13.39 22.5,0 33.21,10.44 33.21,28.39l-33.21 0c-43.92,0 -61.87,17.68 -61.87,43.12 0,24.91 20.09,43.65 53.83,43.65 21.16,0 36.16,-6.96 43.92,-20.08l0 17.94 39.1 0 0 -82.22c0,-43.65 -25.44,-64.01 -69.36,-64.01zm-3.21 120.25c-14.73,0 -23.57,-6.96 -23.57,-17.41 0,-9.64 6.16,-16.87 25.71,-16.87l28.66 0 0 14.73c-4.82,13.12 -16.87,19.55 -30.8,19.55z"/>
   <polygon class="fil0" points="697.7,222.64 771.09,135.87 771.09,110.7 646.82,110.7 646.82,142.83 718.33,142.83 644.95,229.61 644.95,254.78 773.5,254.78 773.5,222.64 "/>
   <path class="fil0" d="M883.75 110.7l0 71.24c0,26.52 -13.93,38.83 -33.21,38.83 -18.48,0 -29.19,-10.71 -29.19,-34.82l0 -75.26 -41.78 0 0 81.42c0,44.46 25.44,64.81 61.6,64.81 17.68,0 33.74,-6.69 44.73,-19.28l0 17.14 39.64 0 0 -144.09 -41.78 0z"/>
   <polygon class="fil1" points="947.4,254.78 1037.46,254.78 1037.46,227.57 990.79,227.57 990.79,110.47 947.4,110.47 "/>
  </g>
  <g id="_2751767965584">
   <path class="fil1" d="M500.22 1.97c-52.07,55.79 -128.12,49.1 -203.48,-1.97 71.06,35.44 138.95,36.66 203.48,1.97z"/>
   <path class="fil1" d="M706.91 53.64c-149.53,-144.85 -221.32,72.29 -393.93,-24.03 148.26,147.54 250.77,-70.94 393.93,24.03z"/>
   <path class="fil1" d="M740.72 99.56c-53.06,-67.11 -139.71,-67.41 -230.16,-18.48 83.98,-32.05 160.82,-26.52 230.16,18.48z"/>
  </g>
  <path class="fil0" d="M153.85 302.92c3.12,0 5.81,0.62 8.07,1.85 2.26,1.23 4.01,3.05 5.24,5.47 1.23,2.41 1.85,5.38 1.85,8.9l0 23.01 -1.51 0 0 -23.01c0,-4.83 -1.19,-8.5 -3.58,-11.01 -2.39,-2.51 -5.72,-3.77 -10,-3.77 -3.32,0 -6.17,0.69 -8.56,2.07 -2.39,1.38 -4.22,3.32 -5.5,5.81 -1.28,2.49 -1.92,5.39 -1.92,8.71l0 21.2 -1.51 0 0 -23.01c0,-4.83 -1.19,-8.5 -3.58,-11.01 -2.39,-2.51 -5.72,-3.77 -10,-3.77 -3.32,0 -6.17,0.69 -8.56,2.07 -2.39,1.38 -4.22,3.32 -5.51,5.81 -1.28,2.49 -1.92,5.39 -1.92,8.71l0 21.2 -1.51 0 0 -39 1.51 0 0 11.01 -0.15 -0.22c1.11,-3.37 3.04,-6.05 5.81,-8.03 2.77,-1.99 6.18,-2.98 10.26,-2.98 4.02,0 7.34,1.02 9.96,3.05 2.62,2.04 4.25,5.07 4.9,9.09l-0.23 -0.07c0.96,-3.57 2.85,-6.47 5.69,-8.71 2.84,-2.24 6.43,-3.36 10.75,-3.36z"/>
  <path id="_1" class="fil0" d="M210.27 342.14l0 -9.28 0 -1.28 0 -14.93c0,-4.07 -1.06,-7.14 -3.17,-9.2 -2.11,-2.06 -5.18,-3.09 -9.2,-3.09 -2.92,0 -5.58,0.5 -8,1.51 -2.41,1.01 -4.48,2.31 -6.18,3.92l-1.06 -1.06c1.86,-1.76 4.12,-3.17 6.79,-4.22 2.67,-1.06 5.46,-1.58 8.37,-1.58 4.53,0 7.98,1.16 10.37,3.47 2.39,2.31 3.58,5.71 3.58,10.18l0 25.57 -1.51 0zm-14.86 0.23c-2.92,0 -5.41,-0.45 -7.47,-1.36 -2.06,-0.91 -3.63,-2.19 -4.71,-3.85 -1.08,-1.66 -1.62,-3.57 -1.62,-5.73 0,-1.86 0.44,-3.58 1.32,-5.17 0.88,-1.58 2.33,-2.87 4.34,-3.85 2.01,-0.98 4.75,-1.47 8.22,-1.47l15.61 0 0 1.43 -15.69 0c-4.43,0 -7.58,0.84 -9.47,2.53 -1.89,1.69 -2.83,3.83 -2.83,6.45 0,2.92 1.08,5.24 3.24,6.98 2.16,1.74 5.18,2.6 9.05,2.6 3.77,0 6.88,-0.87 9.32,-2.6 2.44,-1.74 4.29,-4.19 5.54,-7.35l0.75 0.98c-1.06,3.12 -2.9,5.63 -5.54,7.54 -2.64,1.91 -6,2.87 -10.07,2.87z"/>
  <path id="_2" class="fil0" d="M229.88 342.14l0 -39 1.51 0 0 10.79 -0.15 -0.23c1.06,-3.42 2.9,-6.07 5.54,-7.96 2.64,-1.88 5.95,-2.83 9.92,-2.83l0 1.51c-0.05,0 -0.11,0 -0.19,0 -0.07,0 -0.16,0 -0.26,0 -4.68,0 -8.32,1.5 -10.94,4.49 -2.62,2.99 -3.92,7.08 -3.92,12.26l0 20.97 -1.51 0z"/>
  <path id="_3" class="fil0" d="M260.5 330.53l0 -1.81 28.06 -25.57 2.19 0 -16.97 15.54 -1.21 0.91 -12.07 10.94zm-0.98 11.62l0 -55.97 1.51 0 0 55.97 -1.51 0zm31 0l-18.25 -22.93 1.21 -0.9 19.01 23.83 -1.96 0z"/>
  <path id="_4" class="fil0" d="M318.13 342.37c-3.77,0 -7.12,-0.84 -10.03,-2.53 -2.92,-1.69 -5.22,-4.02 -6.9,-7.02 -1.69,-2.99 -2.53,-6.4 -2.53,-10.22 0,-3.87 0.78,-7.28 2.34,-10.22 1.56,-2.94 3.71,-5.25 6.45,-6.94 2.74,-1.69 5.82,-2.53 9.24,-2.53 3.42,0 6.5,0.82 9.24,2.45 2.74,1.63 4.9,3.91 6.49,6.83 1.59,2.92 2.38,6.26 2.38,10.03 0,0.05 0,0.1 0,0.15 0,0.05 0,0.12 0,0.23l-35.3 0 0 -1.43 34.47 0 -0.6 1.13c0,-3.42 -0.73,-6.49 -2.19,-9.2 -1.46,-2.71 -3.43,-4.85 -5.92,-6.41 -2.49,-1.56 -5.34,-2.34 -8.56,-2.34 -3.17,0 -6.01,0.78 -8.52,2.34 -2.51,1.56 -4.49,3.7 -5.92,6.41 -1.43,2.72 -2.15,5.78 -2.15,9.2l0 0.3c0,3.57 0.78,6.74 2.34,9.5 1.56,2.77 3.7,4.93 6.41,6.49 2.72,1.56 5.81,2.34 9.28,2.34 2.61,0 5.09,-0.5 7.43,-1.51 2.34,-1.01 4.29,-2.51 5.85,-4.53l1.06 1.06c-1.71,2.11 -3.82,3.71 -6.34,4.79 -2.51,1.08 -5.18,1.62 -8,1.62z"/>
  <path id="_5" class="fil0" d="M358.86 342.37c-3.07,0 -5.41,-0.88 -7.02,-2.64 -1.61,-1.76 -2.41,-4.07 -2.41,-6.94l0 -38.17 1.51 0 0 37.79c0,2.76 0.68,4.88 2.04,6.34 1.36,1.46 3.34,2.19 5.96,2.19 2.62,0 4.78,-0.8 6.49,-2.41l1.06 1.06c-0.91,0.96 -2.05,1.66 -3.43,2.11 -1.38,0.45 -2.78,0.68 -4.19,0.68zm-16.97 -37.79l0 -1.43 22.25 0 0 1.43 -22.25 0z"/>
  <path id="_6" class="fil0" d="M379.45 342.14l0 -39 1.51 0 0 39 -1.51 0zm0.75 -49.78c-0.5,0 -0.96,-0.2 -1.36,-0.6 -0.4,-0.4 -0.6,-0.85 -0.6,-1.36 0,-0.55 0.2,-1.02 0.6,-1.4 0.4,-0.38 0.85,-0.57 1.36,-0.57 0.55,0 1.02,0.19 1.4,0.57 0.38,0.38 0.57,0.84 0.57,1.4 0,0.5 -0.19,0.95 -0.57,1.36 -0.38,0.4 -0.84,0.6 -1.4,0.6z"/>
  <path id="_7" class="fil0" d="M417.62 302.92c3.22,0 5.98,0.62 8.3,1.85 2.31,1.23 4.11,3.05 5.39,5.47 1.28,2.41 1.92,5.38 1.92,8.9l0 23.01 -1.51 0 0 -23.01c0,-4.83 -1.23,-8.5 -3.7,-11.01 -2.46,-2.51 -5.91,-3.77 -10.33,-3.77 -3.42,0 -6.36,0.69 -8.83,2.07 -2.46,1.38 -4.35,3.32 -5.66,5.81 -1.31,2.49 -1.96,5.39 -1.96,8.71l0 21.2 -1.51 0 0 -39 1.51 0 0 11.09 -0.15 -0.23c1.16,-3.42 3.14,-6.12 5.96,-8.11 2.82,-1.99 6.34,-2.98 10.56,-2.98z"/>
  <path id="_8" class="fil0" d="M466.42 357c-3.52,0 -6.81,-0.58 -9.88,-1.74 -3.07,-1.16 -5.53,-2.74 -7.39,-4.75l1.06 -1.06c2.01,1.96 4.4,3.47 7.17,4.53 2.77,1.06 5.78,1.58 9.05,1.58 5.63,0 9.79,-1.33 12.48,-4 2.69,-2.66 4.04,-6.89 4.04,-12.67l0 -12.52 0.75 -4.53 -0.75 -4.53 0 -14.18 1.51 0 0 35.53c0,6.29 -1.49,10.91 -4.49,13.88 -2.99,2.97 -7.51,4.45 -13.54,4.45zm-1.13 -16.14c-3.62,0 -6.88,-0.82 -9.77,-2.45 -2.89,-1.63 -5.18,-3.88 -6.86,-6.75 -1.69,-2.87 -2.53,-6.14 -2.53,-9.81 0,-3.72 0.84,-7 2.53,-9.84 1.69,-2.84 3.97,-5.07 6.86,-6.67 2.89,-1.61 6.15,-2.41 9.77,-2.41 3.67,0 6.93,0.8 9.77,2.41 2.84,1.61 5.08,3.83 6.71,6.67 1.63,2.84 2.45,6.12 2.45,9.84 0,3.67 -0.82,6.94 -2.45,9.81 -1.64,2.87 -3.87,5.12 -6.71,6.75 -2.84,1.64 -6.1,2.45 -9.77,2.45zm0 -1.43c3.42,0 6.45,-0.74 9.09,-2.23 2.64,-1.48 4.73,-3.56 6.26,-6.22 1.53,-2.67 2.3,-5.71 2.3,-9.13 0,-3.47 -0.77,-6.51 -2.3,-9.13 -1.53,-2.62 -3.62,-4.66 -6.26,-6.15 -2.64,-1.48 -5.67,-2.22 -9.09,-2.22 -3.37,0 -6.39,0.74 -9.05,2.22 -2.67,1.48 -4.76,3.53 -6.3,6.15 -1.53,2.61 -2.3,5.66 -2.3,9.13 0,3.42 0.77,6.46 2.3,9.13 1.53,2.66 3.63,4.74 6.3,6.22 2.67,1.48 5.68,2.23 9.05,2.23z"/>
  <path id="_9" class="fil0" d="M537.02 342.37c-3.77,0 -7.12,-0.84 -10.03,-2.53 -2.92,-1.69 -5.22,-4.02 -6.9,-7.02 -1.69,-2.99 -2.53,-6.4 -2.53,-10.22 0,-3.87 0.78,-7.28 2.34,-10.22 1.56,-2.94 3.71,-5.25 6.45,-6.94 2.74,-1.69 5.82,-2.53 9.24,-2.53 3.42,0 6.5,0.82 9.24,2.45 2.74,1.63 4.9,3.91 6.49,6.83 1.59,2.92 2.38,6.26 2.38,10.03 0,0.05 0,0.1 0,0.15 0,0.05 0,0.12 0,0.23l-35.3 0 0 -1.43 34.47 0 -0.6 1.13c0,-3.42 -0.73,-6.49 -2.19,-9.2 -1.46,-2.71 -3.43,-4.85 -5.92,-6.41 -2.49,-1.56 -5.34,-2.34 -8.56,-2.34 -3.17,0 -6.01,0.78 -8.52,2.34 -2.51,1.56 -4.49,3.7 -5.92,6.41 -1.43,2.72 -2.15,5.78 -2.15,9.2l0 0.3c0,3.57 0.78,6.74 2.34,9.5 1.56,2.77 3.7,4.93 6.41,6.49 2.72,1.56 5.81,2.34 9.28,2.34 2.61,0 5.09,-0.5 7.43,-1.51 2.34,-1.01 4.29,-2.51 5.85,-4.53l1.06 1.06c-1.71,2.11 -3.82,3.71 -6.34,4.79 -2.51,1.08 -5.18,1.62 -8,1.62z"/>
  <path id="_10" class="fil0" d="M576.7 342.37c-3.17,0 -6.14,-0.5 -8.9,-1.51 -2.77,-1.01 -4.88,-2.29 -6.34,-3.85l0.9 -1.21c1.41,1.36 3.37,2.55 5.88,3.58 2.51,1.03 5.33,1.55 8.45,1.55 4.63,0 7.94,-0.8 9.96,-2.41 2.01,-1.61 3.02,-3.7 3.02,-6.26 0,-1.86 -0.48,-3.33 -1.43,-4.41 -0.95,-1.08 -2.22,-1.91 -3.81,-2.49 -1.58,-0.58 -3.33,-1.04 -5.24,-1.4 -1.91,-0.35 -3.82,-0.73 -5.73,-1.13 -1.91,-0.4 -3.66,-0.97 -5.24,-1.7 -1.58,-0.73 -2.85,-1.74 -3.81,-3.02 -0.96,-1.28 -1.43,-3 -1.43,-5.17 0,-1.76 0.48,-3.4 1.43,-4.9 0.96,-1.51 2.45,-2.74 4.49,-3.69 2.04,-0.96 4.66,-1.43 7.88,-1.43 2.41,0 4.8,0.36 7.17,1.09 2.36,0.73 4.27,1.7 5.73,2.9l-0.91 1.21c-1.56,-1.26 -3.39,-2.2 -5.5,-2.83 -2.11,-0.63 -4.27,-0.94 -6.49,-0.94 -4.27,0 -7.38,0.83 -9.32,2.49 -1.93,1.66 -2.9,3.69 -2.9,6.11 0,1.91 0.48,3.43 1.43,4.56 0.96,1.13 2.23,2 3.81,2.6 1.59,0.6 3.33,1.08 5.24,1.43 1.91,0.35 3.81,0.73 5.7,1.13 1.88,0.4 3.62,0.96 5.2,1.66 1.58,0.7 2.85,1.67 3.81,2.9 0.96,1.23 1.43,2.9 1.43,5.02 0,1.96 -0.53,3.71 -1.58,5.24 -1.06,1.53 -2.65,2.73 -4.79,3.58 -2.14,0.85 -4.84,1.28 -8.11,1.28z"/>
  <path id="_11" class="fil0" d="M614.56 342.37c-3.07,0 -5.41,-0.88 -7.02,-2.64 -1.61,-1.76 -2.41,-4.07 -2.41,-6.94l0 -38.17 1.51 0 0 37.79c0,2.76 0.68,4.88 2.04,6.34 1.36,1.46 3.34,2.19 5.96,2.19 2.62,0 4.78,-0.8 6.49,-2.41l1.06 1.06c-0.91,0.96 -2.05,1.66 -3.43,2.11 -1.38,0.45 -2.78,0.68 -4.19,0.68zm-16.97 -37.79l0 -1.43 22.25 0 0 1.43 -22.25 0z"/>
  <path id="_12" class="fil0" d="M635.15 342.14l0 -39 1.51 0 0 10.79 -0.15 -0.23c1.06,-3.42 2.9,-6.07 5.54,-7.96 2.64,-1.88 5.95,-2.83 9.92,-2.83l0 1.51c-0.05,0 -0.11,0 -0.19,0 -0.07,0 -0.16,0 -0.26,0 -4.68,0 -8.32,1.5 -10.94,4.49 -2.62,2.99 -3.92,7.08 -3.92,12.26l0 20.97 -1.51 0z"/>
  <path id="_13" class="fil0" d="M686.74 342.14l0 -9.28 0 -1.28 0 -14.93c0,-4.07 -1.06,-7.14 -3.17,-9.2 -2.11,-2.06 -5.18,-3.09 -9.2,-3.09 -2.92,0 -5.58,0.5 -8,1.51 -2.41,1.01 -4.48,2.31 -6.18,3.92l-1.06 -1.06c1.86,-1.76 4.12,-3.17 6.79,-4.22 2.67,-1.06 5.46,-1.58 8.37,-1.58 4.53,0 7.98,1.16 10.37,3.47 2.39,2.31 3.58,5.71 3.58,10.18l0 25.57 -1.51 0zm-14.86 0.23c-2.92,0 -5.41,-0.45 -7.47,-1.36 -2.06,-0.91 -3.63,-2.19 -4.71,-3.85 -1.08,-1.66 -1.62,-3.57 -1.62,-5.73 0,-1.86 0.44,-3.58 1.32,-5.17 0.88,-1.58 2.33,-2.87 4.34,-3.85 2.01,-0.98 4.75,-1.47 8.22,-1.47l15.61 0 0 1.43 -15.69 0c-4.43,0 -7.58,0.84 -9.47,2.53 -1.89,1.69 -2.83,3.83 -2.83,6.45 0,2.92 1.08,5.24 3.24,6.98 2.16,1.74 5.18,2.6 9.05,2.6 3.77,0 6.88,-0.87 9.32,-2.6 2.44,-1.74 4.29,-4.19 5.54,-7.35l0.75 0.98c-1.06,3.12 -2.9,5.63 -5.54,7.54 -2.64,1.91 -6,2.87 -10.07,2.87z"/>
  <path id="_14" class="fil0" d="M716.39 342.37c-3.07,0 -5.41,-0.88 -7.02,-2.64 -1.61,-1.76 -2.41,-4.07 -2.41,-6.94l0 -38.17 1.51 0 0 37.79c0,2.76 0.68,4.88 2.04,6.34 1.36,1.46 3.34,2.19 5.96,2.19 2.62,0 4.78,-0.8 6.49,-2.41l1.06 1.06c-0.91,0.96 -2.05,1.66 -3.43,2.11 -1.38,0.45 -2.78,0.68 -4.19,0.68zm-16.97 -37.79l0 -1.43 22.25 0 0 1.43 -22.25 0z"/>
  <path id="_15" class="fil0" d="M750.41 342.37c-3.77,0 -7.12,-0.84 -10.03,-2.53 -2.92,-1.69 -5.22,-4.02 -6.9,-7.02 -1.69,-2.99 -2.53,-6.4 -2.53,-10.22 0,-3.87 0.78,-7.28 2.34,-10.22 1.56,-2.94 3.71,-5.25 6.45,-6.94 2.74,-1.69 5.82,-2.53 9.24,-2.53 3.42,0 6.5,0.82 9.24,2.45 2.74,1.63 4.9,3.91 6.49,6.83 1.59,2.92 2.38,6.26 2.38,10.03 0,0.05 0,0.1 0,0.15 0,0.05 0,0.12 0,0.23l-35.3 0 0 -1.43 34.47 0 -0.6 1.13c0,-3.42 -0.73,-6.49 -2.19,-9.2 -1.46,-2.71 -3.43,-4.85 -5.92,-6.41 -2.49,-1.56 -5.34,-2.34 -8.56,-2.34 -3.17,0 -6.01,0.78 -8.52,2.34 -2.51,1.56 -4.49,3.7 -5.92,6.41 -1.43,2.72 -2.15,5.78 -2.15,9.2l0 0.3c0,3.57 0.78,6.74 2.34,9.5 1.56,2.77 3.7,4.93 6.41,6.49 2.72,1.56 5.81,2.34 9.28,2.34 2.61,0 5.09,-0.5 7.43,-1.51 2.34,-1.01 4.29,-2.51 5.85,-4.53l1.06 1.06c-1.71,2.11 -3.82,3.71 -6.34,4.79 -2.51,1.08 -5.18,1.62 -8,1.62zm-4.75 -46.01l10.56 -8.3 3.02 0 -11.31 8.3 -2.26 0z"/>
  <path id="_16" class="fil0" d="M796.79 357c-3.52,0 -6.81,-0.58 -9.88,-1.74 -3.07,-1.16 -5.53,-2.74 -7.39,-4.75l1.06 -1.06c2.01,1.96 4.4,3.47 7.17,4.53 2.77,1.06 5.78,1.58 9.05,1.58 5.63,0 9.79,-1.33 12.48,-4 2.69,-2.66 4.04,-6.89 4.04,-12.67l0 -12.52 0.75 -4.53 -0.75 -4.53 0 -14.18 1.51 0 0 35.53c0,6.29 -1.49,10.91 -4.49,13.88 -2.99,2.97 -7.51,4.45 -13.54,4.45zm-1.13 -16.14c-3.62,0 -6.88,-0.82 -9.77,-2.45 -2.89,-1.63 -5.18,-3.88 -6.86,-6.75 -1.69,-2.87 -2.53,-6.14 -2.53,-9.81 0,-3.72 0.84,-7 2.53,-9.84 1.69,-2.84 3.97,-5.07 6.86,-6.67 2.89,-1.61 6.15,-2.41 9.77,-2.41 3.67,0 6.93,0.8 9.77,2.41 2.84,1.61 5.08,3.83 6.71,6.67 1.63,2.84 2.45,6.12 2.45,9.84 0,3.67 -0.82,6.94 -2.45,9.81 -1.64,2.87 -3.87,5.12 -6.71,6.75 -2.84,1.64 -6.1,2.45 -9.77,2.45zm0 -1.43c3.42,0 6.45,-0.74 9.09,-2.23 2.64,-1.48 4.73,-3.56 6.26,-6.22 1.53,-2.67 2.3,-5.71 2.3,-9.13 0,-3.47 -0.77,-6.51 -2.3,-9.13 -1.53,-2.62 -3.62,-4.66 -6.26,-6.15 -2.64,-1.48 -5.67,-2.22 -9.09,-2.22 -3.37,0 -6.39,0.74 -9.05,2.22 -2.67,1.48 -4.76,3.53 -6.3,6.15 -1.53,2.61 -2.3,5.66 -2.3,9.13 0,3.42 0.77,6.46 2.3,9.13 1.53,2.66 3.63,4.74 6.3,6.22 2.67,1.48 5.68,2.23 9.05,2.23z"/>
  <path id="_17" class="fil0" d="M832.77 342.14l0 -39 1.51 0 0 39 -1.51 0zm0.75 -49.78c-0.5,0 -0.96,-0.2 -1.36,-0.6 -0.4,-0.4 -0.6,-0.85 -0.6,-1.36 0,-0.55 0.2,-1.02 0.6,-1.4 0.4,-0.38 0.85,-0.57 1.36,-0.57 0.55,0 1.02,0.19 1.4,0.57 0.38,0.38 0.57,0.84 0.57,1.4 0,0.5 -0.19,0.95 -0.57,1.36 -0.38,0.4 -0.84,0.6 -1.4,0.6z"/>
  <path id="_18" class="fil0" d="M867.62 342.37c-3.67,0 -6.95,-0.84 -9.84,-2.53 -2.89,-1.69 -5.17,-4.01 -6.83,-6.98 -1.66,-2.97 -2.49,-6.39 -2.49,-10.26 0,-3.87 0.83,-7.29 2.49,-10.26 1.66,-2.97 3.93,-5.28 6.83,-6.94 2.89,-1.66 6.17,-2.49 9.84,-2.49 2.82,0 5.44,0.53 7.88,1.58 2.44,1.06 4.49,2.64 6.15,4.75l-1.06 1.13c-1.51,-2.06 -3.39,-3.58 -5.66,-4.56 -2.26,-0.98 -4.7,-1.47 -7.32,-1.47 -3.37,0 -6.39,0.77 -9.05,2.3 -2.67,1.53 -4.76,3.67 -6.3,6.41 -1.53,2.74 -2.3,5.92 -2.3,9.54 0,3.62 0.77,6.8 2.3,9.54 1.53,2.74 3.63,4.89 6.3,6.45 2.67,1.56 5.68,2.34 9.05,2.34 2.61,0 5.05,-0.5 7.32,-1.51 2.26,-1.01 4.15,-2.51 5.66,-4.53l1.06 1.13c-1.66,2.11 -3.71,3.69 -6.15,4.75 -2.44,1.06 -5.07,1.58 -7.88,1.58z"/>
  <path id="_19" class="fil0" d="M909.18 342.37c-3.62,0 -6.85,-0.84 -9.69,-2.53 -2.84,-1.69 -5.09,-4.02 -6.75,-7.02 -1.66,-2.99 -2.49,-6.4 -2.49,-10.22 0,-3.87 0.83,-7.28 2.49,-10.22 1.66,-2.94 3.91,-5.25 6.75,-6.94 2.84,-1.69 6.07,-2.53 9.69,-2.53 3.62,0 6.86,0.84 9.73,2.53 2.87,1.69 5.12,4 6.75,6.94 1.63,2.94 2.45,6.35 2.45,10.22 0,3.82 -0.82,7.23 -2.45,10.22 -1.63,2.99 -3.88,5.33 -6.75,7.02 -2.87,1.69 -6.11,2.53 -9.73,2.53zm0 -1.43c3.32,0 6.3,-0.78 8.94,-2.34 2.64,-1.56 4.71,-3.72 6.22,-6.49 1.51,-2.77 2.26,-5.93 2.26,-9.5 0,-3.62 -0.75,-6.8 -2.26,-9.54 -1.51,-2.74 -3.58,-4.88 -6.22,-6.41 -2.64,-1.53 -5.62,-2.3 -8.94,-2.3 -3.32,0 -6.29,0.77 -8.9,2.3 -2.62,1.53 -4.69,3.67 -6.22,6.41 -1.53,2.74 -2.3,5.92 -2.3,9.54 0,3.57 0.77,6.74 2.3,9.5 1.53,2.77 3.61,4.93 6.22,6.49 2.61,1.56 5.58,2.34 8.9,2.34z"/>
 </g>
</svg>
